<svg xmlns="http://www.w3.org/2000/svg" xmlns:xlink="http://www.w3.org/1999/xlink" xmlns:inkscape="http://www.inkscape.org/namespaces/inkscape" version="1.1" width="1920" height="1920" viewBox="0 0 1920 1920">
<defs>
<clipPath id="clip_0">
<path transform="matrix(1,0,0,-1,0,1920)" d="M0 1920H1920V0H0Z"/>
</clipPath>
</defs>
<g inkscape:groupmode="layer" inkscape:label="Layer 1">
<path transform="matrix(1,0,0,-1,907.5835,515.0503)" d="M0 0V-154.275L987.763-154.658 679.662-468.415H-470.396Z" fill="#ef4023"/>
<path transform="matrix(1,0,0,-1,1010.002,1555.5889)" d="M0 0V148.35L-984.349 149.757-680.782 459.27H464.496Z" fill="#00984a"/>
<g clip-path="url(#clip_0)">
<path transform="matrix(1,0,0,-1,474.104,1202.169)" d="M0 0-6.073 35.777H-99.365C-99.365 35.777-131.794 32.429-131.794 5.781V-99.826C-131.794-99.826-128.952-131.345-97.489-131.345H-54.689C-54.689-131.345-36.294-130.609-36.294-116.097V-131.345H12.86C12.86-131.345 5.615-123.345 5.615-116.608V-43.317C5.615-43.317 8.433-31.339 12.515-31.339H-70.639V-60.712C-70.639-60.712-67.513-56.099-61.908-56.099H-41.84V-90.404C-41.84-90.404-43.832-99.826-51.304-99.826H-70.867C-70.867-99.826-78.117-96.989-78.117-90.404V-.736C-78.117-.736-77.378 5.781-70.867 5.781H-12.818C-12.818 5.781-5.84 4.601 0 0" fill="#ffffff"/>
<path transform="matrix(1,0,0,-1,493.8804,1303.6865)" d="M0 0C0-26.653 32.438-30.058 32.438-30.058H109.417L115.417 5.551C109.858 1.236 102.823 0 102.823 0H61.001C54.43 0 53.745 6.754 53.745 6.754V100.338C53.745 100.338 54.43 107.057 61.001 107.057H102.823C102.823 107.057 109.858 105.889 115.417 101.349L109.417 137.07H32.438C32.438 137.07 0 133.71 0 107.057Z" fill="#ffffff"/>
<path transform="matrix(1,0,0,-1,622.332,1303.6865)" d="M0 0C0-26.653 32.435-30.058 32.435-30.058H109.574L115.412 5.551C109.622 1.236 102.832 0 102.832 0H60.984C54.194 0 53.728 6.754 53.728 6.754V100.338C53.728 100.338 54.194 107.057 60.984 107.057H102.832C102.832 107.057 109.622 105.889 115.412 101.349L109.574 137.07H32.435C32.435 137.07 0 133.71 0 107.057Z" fill="#ffffff"/>
<path transform="matrix(1,0,0,-1,771.5181,1320.3447)" d="M0 0C0-7.607 6.812-13.399 6.812-13.399H-27.314C-27.314-13.399-20.279-7.607-20.279 0V139.772C-20.279 147.469-27.314 153.498-27.314 153.498H42.124L97.396 22.878V139.559C97.396 147.211 90.477 153.498 90.477 153.498H124.825C124.825 153.498 117.58 147.211 117.58 139.559V-13.399H55.896L-.455 118.007Z" fill="#ffffff"/>
<path transform="matrix(1,0,0,-1,956.5937,1303.6865)" d="M0 0H52.205C52.205 0 59.25 1.236 64.802 5.551L61.178-27.889H-53.211C-47.88-27.889-48.346-13.844-48.346-13.844V123.114C-48.346 128.108-54.478 136.84-54.478 136.84H58.795L64.802 101.349C59.25 105.889 52.205 107.057 52.205 107.057H0V71.302H43.024C43.024 71.302 57.093 73.679 58.054 79.527V40.351C58.054 40.351 51.514 44.211 45.75 45.188 39.969 46.143 0 45.188 0 45.188Z" fill="#ffffff"/>
<path transform="matrix(1,0,0,-1,1115.4902,1318.6983)" d="M0 0C0-7.551 7.254-12.877 7.254-12.877H-55.548C-55.548-12.877-49.317-7.551-49.317 0V122.068H-75.689C-75.689 122.068-82.64 120.9-88.319 116.36L-82.414 151.852H36.39L42.352 116.36C36.738 120.9 29.699 122.068 29.699 122.068H-.229Z" fill="#ffffff"/>
<path transform="matrix(1,0,0,-1,1637.5098,770.1372)" d="M0 0-24.3-114.297H-38.523L-21.188-25.041-23.221-18.759C-23.221-18.759-12.826-14.641 0 0" fill="#ffffff"/>
<path transform="matrix(1,0,0,-1,1162.4053,768.79837)" d="M0 0-23.436-114.129H-38.691L-20.906-24.803-23.208-18.401C-23.208-18.401-12.935-14.511 0 0" fill="#ffffff"/>
<path transform="matrix(1,0,0,-1,1235.1611,820.4575)" d="M0 0C-2.835 0-5.437-6.881-5.437-6.881L-9.722-27.645H1.277L6.726-.497C6.726-.497 2.859 0 0 0M-31.75-62.689C-31.75-62.689-21.692-4.088-17.855 9.326-13.906 23.221 2.074 24.063 2.074 24.063H14.476C24.51 23.827 27.345 27.335 27.345 27.335L16.753-27.645H132.863C135.237-15.003 126.468-14.149 126.468-14.149H40.22C40.22-14.149 41.551-.956 46.748 25.28 51.609 51.398 77.239 48.03 77.239 48.03H137.593C144.774 48.03 147.861 55.208 147.861 55.208 148.604 41.011 155.617 25.034 155.617 25.034H76.634C57.885 25.034 59.335 10.577 59.335 10.577H130.574C154.886 10.577 152.236-11.362 152.236-11.362L149.149-27.645H185.73L191.216 .842 187.05 7.766C194.062 10.163 211.073 22.496 211.073 22.496L202.059-27.645H244.628L247.17-11.604 243.052-8.77C255.999-3.629 268.101 10.043 268.101 10.043L259.877-27.645H271.715L277.662-5.919 271.715-.497C280.545 1.283 295.187 14.925 295.187 14.925L284.902-27.645H297.478L305.534 3.084 299.306 7.499C305.534 10.357 323.306 23.221 323.306 23.221L314.788-27.645H340.557L349.932 26.856 346.005 30.423C352.526 32.533 371.869 51.168 371.869 51.168L349.386-62.689Z" fill="#ffffff"/>
<path transform="matrix(1,0,0,-1,1240.544,761.3115)" d="M0 0C4.478-2.302 6.054-8.589 3.159-14.277 .359-19.957-5.562-22.501-10.273-20.2-14.938-17.851-16.441-11.377-13.654-5.736-10.999-.236-4.837 2.296 0 0" fill="#ffffff"/>
<path transform="matrix(1,0,0,-1,1267.8828,761.3115)" d="M0 0C4.723-2.302 6.042-8.589 3.272-14.277 .678-19.957-5.622-22.501-10.028-20.2-14.938-17.851-16.436-11.377-13.606-5.736-10.759-.236-4.604 2.296 0 0" fill="#ffffff"/>
<path transform="matrix(1,0,0,-1,731.7231,761.3115)" d="M0 0C4.699-2.302 5.991-8.589 3.138-14.277 .362-19.957-5.638-22.501-10.283-20.2-14.937-17.851-16.463-11.377-13.681-5.736-10.768-.236-4.846 2.296 0 0" fill="#ffffff"/>
<path transform="matrix(1,0,0,-1,759.1128,761.3115)" d="M0 0C4.42-2.302 5.985-8.589 3.317-14.277 .545-19.957-5.688-22.501-10.34-20.2-14.932-17.851-16.517-11.377-13.681-5.736-10.816-.236-4.651 2.296 0 0" fill="#ffffff"/>
<path transform="matrix(1,0,0,-1,1055.3828,759.57278)" d="M0 0C4.824-2.344 6.155-8.761 3.536-14.197 .719-19.874-5.186-22.406-10.053-20.123-14.5-18.063-16.316-11.365-13.445-5.914-10.646-.408-4.496 2.307 0 0" fill="#ffffff"/>
<path transform="matrix(1,0,0,-1,757.1201,899.438)" d="M0 0C4.603-2.538 6.401-8.772 3.572-14.457 .707-19.837-5.494-22.685-10.163-20.371-14.761-17.778-16.328-11.613-13.501-5.931-10.631-.249-4.469 2.362 0 0" fill="#ffffff"/>
<path transform="matrix(1,0,0,-1,784.623,899.438)" d="M0 0C4.658-2.538 6.234-8.772 3.405-14.457 .558-19.837-5.388-22.685-10.022-20.371-14.694-17.778-16.274-11.613-13.354-5.931-10.798-.249-4.651 2.362 0 0" fill="#ffffff"/>
<path transform="matrix(1,0,0,-1,896.6157,899.438)" d="M0 0C4.669-2.538 6.015-8.772 3.09-14.457 .375-19.837-5.619-22.685-10.328-20.371-14.925-17.778-16.493-11.613-13.828-5.931-10.816-.249-4.78 2.362 0 0" fill="#ffffff"/>
<path transform="matrix(1,0,0,-1,837.7842,899.438)" d="M0 0C4.664-2.538 5.925-8.772 3.15-14.457 .48-19.837-5.685-22.685-10.271-20.371-14.922-17.778-16.504-11.613-13.669-5.931-10.999-.249-4.819 2.362 0 0" fill="#ffffff"/>
<path transform="matrix(1,0,0,-1,923.9634,899.438)" d="M0 0C4.658-2.538 6.225-8.772 3.44-14.457 .551-19.837-5.386-22.685-10.025-20.371-14.937-17.778-16.501-11.613-13.352-5.931-10.837-.249-4.66 2.362 0 0" fill="#ffffff"/>
<path transform="matrix(1,0,0,-1,1505.5518,773.77)" d="M0 0C4.663-2.527 6.228-8.946 3.626-14.455 .605-19.832-5.377-22.861-10.04-20.371-14.68-17.767-16.208-11.602-13.36-5.925-10.754-.249-4.592 2.173 0 0" fill="#ffffff"/>
<path transform="matrix(1,0,0,-1,1523.3848,747.9448)" d="M0 0C4.908-2.35 6.18-9 3.344-14.452 .497-19.897-5.623-22.423-10.076-20.146-14.692-17.856-16.269-11.616-13.422-5.862-10.562-.426-4.419 2.313 0 0" fill="#ffffff"/>
<path transform="matrix(1,0,0,-1,1411.6738,893.7466)" d="M0 0C4.854-2.308 6.203-8.788 3.596-14.386 .749-19.84-5.186-22.426-10.07-20.325-14.733-17.526-16.232-11.374-13.385-5.691-10.88-.249-4.628 2.35 0 0" fill="#ffffff"/>
<path transform="matrix(1,0,0,-1,1533.0039,773.77)" d="M0 0C4.844-2.527 6.348-8.946 3.525-14.455 .475-19.832-5.49-22.861-10.165-20.371-14.996-17.767-16.088-11.602-13.432-5.925-10.65-.249-4.711 2.173 0 0" fill="#ffffff"/>
<path transform="matrix(1,0,0,-1,716.459,820.4575)" d="M0 0C-3.009 0-5.371-6.881-5.371-6.881L-9.974-27.57H1.34L6.792-.497C6.792-.497 2.685 0 0 0M-31.663-62.173C-31.663-62.173-21.869-4.088-18.005 9.552-14.131 23.221 1.832 24.063 1.832 24.063H14.296C24.333 23.827 27.408 27.335 27.408 27.335L16.834-27.645 60.429-27.093 66.645 2.665 62.776 9.794C75.187 13.409 87.534 27.335 87.534 27.335L75.965-27.093V-27.645H150.478C150.478-27.645 152.902-19.334 154.826-11.362 156.705-3.393 147.457-5.439 147.457-5.439H109.235C126.219 7.499 129.559 24.063 129.559 24.063 130.406 21.404 133.973 19.594 133.973 19.594H152.767C178.424 21.167 173.471-4.912 173.471-4.912L167.782-27.645H167.291 203.222L209.624 2.295 205.275 9.326C217.847 12.944 230.258 27.093 230.258 27.093L218.872-27.645H245.669L261.265 54.426C266.354 40.762 277.215 31.199 277.215 31.199L271.551 25.034 260.659-27.645H332.384C332.384-27.645 334.745-19.091 336.502-11.362 338.366-3.246 329.309-5.439 329.309-5.439H290.905C307.965 7.766 311.291 24.306 311.291 24.306 312.298 21.666 315.702 19.594 315.702 19.594H334.518C360.574 21.404 355.131-4.828 355.131-4.828L349.197-27.645H384.047L397.701 30.956 393.583 35.928C407.255 42.573 418.087 59.326 418.087 59.326L393.35-62.173Z" fill="#ffffff"/>
<path transform="matrix(1,0,0,-1,424.9824,998.0967)" d="M0 0H1147.592L1063.978-83.807H-81.952Z" fill="#7a003f"/>
<path transform="matrix(1,0,0,-1,437.187,983.4648)" d="M0 0-12.205-14.632H1135.387L1150.058 0Z" fill="#ffffff"/>
<path transform="matrix(1,0,0,-1,344.0063,1080.9053)" d="M0 0-14.787-15.299 1130.492-15.414 1145.911 0Z" fill="#ffffff"/>
</g>
</g>
</svg>
