<svg width="382" height="428" viewBox="0 0 382 428" fill="none" xmlns="http://www.w3.org/2000/svg">
<path d="M223.564 62.2622C239.654 44.2002 249.543 36.0911 268.965 25.839V326.607L223.564 335.988V62.2622Z" fill="white"/>
<path d="M368.627 213.474C378.039 193.607 379.147 184.777 381.667 164.396L33.6534 239.963C25.4006 258.346 22.7442 268.622 21.4724 286.872L368.627 213.474Z" fill="white"/>
<path d="M368.627 305.598C378.039 285.73 379.147 276.9 381.667 256.52L225.225 289.632C224.118 307.843 225.389 317.186 224.118 335.436L368.627 305.598Z" fill="white"/>
<path d="M368.627 397.708C378.039 377.841 379.147 369.011 381.667 348.63L239.067 379.586C231.869 389.519 227.44 406.075 224.118 427.547L368.627 397.708Z" fill="white"/>
<path d="M142.174 366.341C156.016 349.233 170.411 327.71 180.377 310.051L12.514 346.435C4.26132 364.818 1.60486 375.094 0.333069 393.344L142.174 366.341Z" fill="white"/>
<path d="M134.976 36.8764C151.067 18.8143 160.955 10.7052 180.377 0.453125V311.154L134.976 320.536V36.8764Z" fill="white"/>
</svg>
